<svg width="72" height="72" viewBox="0 0 72 72" fill="none" xmlns="http://www.w3.org/2000/svg">
<rect width="72" height="72" rx="36" fill="#F5F5F5"/>
<path d="M36.0015 36.216C41.7679 36.216 46.4424 31.4666 46.4424 25.608C46.4424 19.7494 41.7679 15 36.0015 15C30.2351 15 25.5605 19.7494 25.5605 25.608C25.5605 31.4666 30.2351 36.216 36.0015 36.216Z" stroke="#184AFB" stroke-width="2" stroke-linejoin="round"/>
<path d="M43.7126 40.5479H42.8268C40.9333 42.2202 38.5089 43.1412 36 43.1412C33.4911 43.1412 31.0667 42.2202 29.1732 40.5479H28.2874C26.0345 40.757 23.8821 41.5936 22.067 42.9655C20.252 44.3375 18.8447 46.1916 18 48.3239C18 48.3239 22.7244 56.9999 36 56.9999C49.2756 56.9999 54 48.3239 54 48.3239C53.1553 46.1916 51.748 44.3375 49.933 42.9655C48.1179 41.5936 45.9655 40.757 43.7126 40.5479Z" stroke="#184AFB" stroke-width="2" stroke-linejoin="round"/>
</svg>
