<svg width="198" height="172" viewBox="0 0 198 172" fill="none" xmlns="http://www.w3.org/2000/svg">
<mask id="mask0_1_4256" style="mask-type:luminance" maskUnits="userSpaceOnUse" x="0" y="0" width="198" height="172">
<path d="M197.54 0.0722656H0.498047V171.831H197.54V0.0722656Z" fill="white"/>
</mask>
<g mask="url(#mask0_1_4256)">
<path d="M108.713 162.256L36.4317 168.226C34.3563 168.402 32.281 166.689 31.8066 164.383L1.09117 13.6073C0.616803 11.3023 -0.331931 6.98762 8.0881 6.57382L81.1411 0.958889C83.2165 0.781612 85.2919 2.4956 85.7662 4.80067L116.956 155.754C117.431 157.823 115.177 162.078 108.713 162.256Z" fill="#2E3038"/>
<path d="M36.1351 168.52C34.0005 168.52 31.9844 166.747 31.51 164.383L0.794596 13.6662C0.498116 12.3068 0.0830383 10.2972 1.32826 8.70138C2.45489 7.28288 4.64883 6.45546 8.02878 6.33724L81.141 0.722315C83.3349 0.544944 85.5882 2.37724 86.0626 4.80053L117.253 155.754C117.49 156.818 117.075 158.178 116.126 159.36C115.177 160.542 113.102 162.433 108.713 162.551L36.4909 168.52C36.3723 168.52 36.2537 168.52 36.1351 168.52ZM81.4374 1.25424H81.2003L8.08807 6.86917C4.9453 7.04645 2.81067 7.75574 1.80263 9.05602C0.735302 10.4745 1.09108 12.2477 1.32826 13.4889L32.103 164.265C32.5181 166.393 34.4749 168.048 36.3723 167.87L108.654 161.901C112.806 161.782 114.822 160.009 115.652 158.946C116.422 158.118 116.778 156.936 116.66 155.813L85.4696 4.85959C85.0546 2.79095 83.2757 1.25424 81.4374 1.25424Z" fill="#2E3038"/>
<path d="M114.228 159.478L41.9458 165.447C39.8704 165.625 37.795 163.911 37.3207 161.606L6.60521 10.8296C6.13086 8.52452 7.43543 6.51494 9.51072 6.33767L81.7929 0.427151C83.8683 0.249874 85.9437 1.96386 86.418 4.26893L117.134 155.045C117.608 157.291 116.304 159.301 114.228 159.478Z" fill="white"/>
<path d="M41.7093 165.743C39.5746 165.743 37.5586 163.969 37.0842 161.665L6.30944 10.8886C6.01297 9.7065 6.30944 8.40612 7.02097 7.46049C7.61391 6.69213 8.50341 6.16021 9.51141 6.10105L81.7936 0.0724126C83.9875 -0.104958 86.2407 1.72734 86.7151 4.15063L117.431 154.927C117.727 156.109 117.431 157.409 116.719 158.414C116.126 159.182 115.237 159.714 114.229 159.773L42.0057 165.743H41.7093ZM82.09 0.663399H81.8529L9.57071 6.63298C8.74059 6.69213 7.96967 7.10584 7.49532 7.75598C6.90238 8.64255 6.6652 9.7065 6.90238 10.7112L37.6772 161.547C38.0922 163.674 40.049 165.329 41.9464 165.151L114.229 159.182C115.059 159.123 115.83 158.709 116.304 158.059C116.897 157.173 117.134 156.109 116.897 155.045L86.1814 4.32791C85.7071 2.25927 83.9282 0.663399 82.09 0.663399Z" fill="#2E3038"/>
<path d="M53.0937 12.4252L43.1912 13.2526C42.5983 13.2526 42.0645 12.8389 41.9459 12.1888C41.8274 11.7159 42.0645 11.184 42.5983 11.0067C42.6576 11.0067 42.7169 11.0067 42.7169 11.0067L52.6786 10.1792C53.2716 10.1792 53.8052 10.5929 53.9238 11.243C54.1017 11.7751 53.8052 12.2478 53.2716 12.4252C53.2123 12.4252 53.153 12.4252 53.0937 12.4252Z" fill="#2E3038"/>
<path d="M110.077 145.351L40.3442 151.085L12.7715 15.9123L29.3151 14.553L31.5091 16.0897C32.2206 16.6216 33.1101 16.8581 33.9995 16.7989L63.1733 14.4348C64.0628 14.3756 64.8336 13.9619 65.3672 13.2526L66.7311 11.4795L82.5039 10.1792L110.077 145.351Z" fill="#184AFB"/>
<path d="M40.3457 151.44C40.2272 151.44 40.1086 151.321 40.0493 151.203L12.4766 15.9716C12.4766 15.9125 12.4766 15.7943 12.5359 15.7351C12.5952 15.6761 12.6544 15.6169 12.7137 15.6169L29.2574 14.2576C29.3167 14.2576 29.376 14.2576 29.4352 14.3166L31.6292 15.8533C32.2815 16.3262 33.1116 16.5626 33.9418 16.5035L63.1155 14.0802C63.8864 14.0211 64.5979 13.6073 65.0723 13.0163L66.4361 11.2432C66.4954 11.184 66.5547 11.125 66.6733 11.125L82.4461 9.82471C82.624 9.82471 82.7425 9.94292 82.7425 10.0611L110.316 145.293C110.316 145.351 110.316 145.47 110.256 145.529C110.197 145.588 110.138 145.647 110.019 145.647L40.3457 151.44ZM13.1288 16.1488L40.5829 150.79L109.723 145.057L82.2682 10.4748L66.8512 11.7161L65.606 13.371C65.013 14.1394 64.1828 14.6121 63.1748 14.6713L34.0011 17.0946C33.0523 17.1536 32.1036 16.8581 31.2735 16.3262L29.2574 14.8486L13.1288 16.1488Z" fill="#2E3038"/>
<path d="M78.2951 152.208C78.1172 151.262 77.2871 150.612 76.3383 150.612C75.5081 150.73 74.9745 151.44 75.0338 152.267C75.0338 152.326 75.0338 152.444 75.0931 152.503C75.271 153.449 76.1012 154.099 77.0499 154.099C77.88 153.98 78.4137 153.271 78.3544 152.444C78.3544 152.385 78.3544 152.326 78.2951 152.208Z" fill="#2E3038"/>
<path d="M33.1695 44.8736L25.6983 45.4647C24.453 45.4647 23.3857 44.5781 23.2079 43.3959L21.5475 35.1213C21.3103 33.8801 22.0219 32.7571 23.1486 32.698L30.6198 32.0479C31.8651 32.0479 32.9324 32.9344 33.1103 34.1756L34.7706 42.3911C35.0078 43.6915 34.2962 44.8144 33.1695 44.8736Z" fill="white"/>
<path d="M25.5809 45.8193C24.2764 45.7602 23.1498 44.7555 22.9126 43.5142L21.2523 35.2396C21.0744 34.5303 21.2523 33.8211 21.6673 33.23C22.0231 32.7572 22.5568 32.4617 23.1498 32.4025L30.6211 31.8115C31.9849 31.8115 33.1709 32.7572 33.4673 34.1166L35.1276 42.3322C35.3055 43.0414 35.1276 43.7507 34.7125 44.3417C34.3568 44.8145 33.8231 45.11 33.2895 45.1692L25.8181 45.7602L25.5809 45.8193ZM30.7397 32.4025H30.6211L23.1498 32.9936C22.7347 33.0527 22.3789 33.23 22.1417 33.5847C21.8452 34.0574 21.7266 34.5895 21.8452 35.1214L23.5055 43.396C23.6834 44.4599 24.6321 45.2282 25.6995 45.2282L33.1709 44.6372C33.5859 44.5781 33.9417 44.4008 34.1789 44.0462C34.4753 43.6325 34.5939 43.0414 34.4753 42.5095L32.8151 34.2939C32.6371 33.2891 31.807 32.4617 30.7397 32.4025Z" fill="white"/>
<path d="M49.8318 43.5142L42.3604 44.1052C41.1151 44.1052 40.0478 43.2186 39.87 41.9775L38.2096 33.7619C37.9725 32.5207 38.684 31.3977 39.8107 31.3386L47.282 30.7476C48.5272 30.7476 49.5945 31.6341 49.7724 32.8754L51.4327 41.0909C51.6699 42.3321 50.9583 43.4551 49.8318 43.5142Z" fill="white"/>
<path d="M42.243 44.4599C40.9385 44.4009 39.8119 43.3961 39.5747 42.0958L37.9144 33.8802C37.7365 33.171 37.9144 32.4617 38.3294 31.8706C38.6852 31.3979 39.219 31.1023 39.8119 31.0432L47.2832 30.4521C48.647 30.4521 49.833 31.4569 50.1294 32.7572L51.7897 40.9728C51.9677 41.6821 51.7897 42.3913 51.3746 42.9824C51.0189 43.4552 50.4852 43.7507 49.8923 43.8098L42.4209 44.4009L42.243 44.4599ZM47.4018 31.0432H47.2832L39.8119 31.6343C39.3968 31.6934 39.0411 31.8706 38.8039 32.2253C38.5073 32.6982 38.3887 33.2301 38.5073 33.762L40.1677 41.9776C40.3455 43.0414 41.2942 43.8098 42.3616 43.8098L49.833 43.2188C50.248 43.1597 50.6038 42.9824 50.841 42.6869C51.1374 42.214 51.256 41.6821 51.1374 41.1501L49.4772 32.9346C49.2993 31.9298 48.4098 31.1023 47.4018 31.0432Z" fill="white"/>
<path d="M66.4353 42.1548L58.9639 42.7458C57.7187 42.7458 56.6514 41.8593 56.4735 40.618L54.8131 32.4025C54.576 31.1613 55.2876 30.0383 56.4142 29.9792L63.8855 29.3882C65.1307 29.3882 66.1981 30.2748 66.376 31.4568L68.0362 39.7315C68.3328 40.9727 67.6211 42.0365 66.4353 42.1548Z" fill="white"/>
<path d="M58.8466 43.0415C57.5421 42.9824 56.4154 41.9776 56.1782 40.6774L54.5179 32.4618C54.34 31.7525 54.5179 31.0433 54.9331 30.4522C55.2888 29.9793 55.8225 29.6838 56.4154 29.6248L63.8867 29.0337C65.2505 29.0337 66.4958 29.9793 66.733 31.3388L68.3933 39.5543C68.5712 40.2635 68.3933 40.9728 67.9781 41.5638C67.6224 42.0367 67.0887 42.3323 66.4958 42.3913L59.0244 42.9824L58.8466 43.0415ZM64.0053 29.6838H63.8867L56.4154 30.2749C56.0003 30.2749 55.6446 30.5112 55.4074 30.8068C55.1109 31.2797 54.9924 31.8116 55.1109 32.3435L56.8305 40.5591C57.0083 41.623 57.9571 42.3913 59.0244 42.3913L66.4958 41.8003C66.9108 41.7412 67.2666 41.5638 67.5038 41.2093C67.8003 40.7955 67.9188 40.2045 67.8003 39.6726L66.14 31.3978C65.9028 30.5112 65.0726 29.7429 64.0053 29.6838Z" fill="white"/>
<path d="M83.0973 40.7955L75.626 41.3865C74.3808 41.3865 73.3134 40.4999 73.1355 39.2588L71.4753 31.0432C71.238 29.802 71.9496 28.679 73.0762 28.6199L80.5476 28.0288C81.7927 28.0288 82.8601 28.9154 83.038 30.1566L84.6983 38.3722C84.9355 39.6133 84.2239 40.6773 83.0973 40.7955Z" fill="white"/>
<path d="M75.5086 41.6822C74.2042 41.623 73.0775 40.6183 72.8403 39.318L71.1801 31.1024C71.0021 30.3932 71.1801 29.6839 71.5951 29.0928C71.9509 28.62 72.4845 28.3245 73.0775 28.2654L80.5488 27.6743C81.9127 27.6743 83.0985 28.62 83.395 29.9794L85.0553 38.195C85.2332 38.9043 85.0554 39.6135 84.6403 40.2045C84.2845 40.6774 83.7508 40.9729 83.1578 41.032L75.6865 41.623L75.5086 41.6822ZM80.6674 28.2654H80.5488L73.0775 28.8565C72.6624 28.9155 72.3066 29.0928 72.0695 29.4475C71.773 29.8613 71.6544 30.4522 71.8323 30.9251L73.4925 39.1998C73.6705 40.2636 74.6192 41.032 75.6865 41.032L83.1578 40.441C83.5729 40.3818 83.9287 40.2045 84.1659 39.8499C84.4624 39.377 84.581 38.8451 84.4624 38.3132L82.8021 30.0976C82.5649 29.152 81.7348 28.3836 80.6674 28.2654Z" fill="white"/>
<path d="M37.0844 63.8462L29.6131 64.4372C28.3678 64.4372 27.3005 63.5507 27.1226 62.3095L25.403 54.094C25.1658 52.8527 25.8773 51.7297 27.004 51.6707L34.4754 51.0796C35.7205 51.0796 36.7878 51.9662 36.9658 53.2074L38.6261 61.4229C38.9225 62.6641 38.211 63.728 37.0844 63.8462Z" fill="white"/>
<path d="M29.4345 64.792C28.1299 64.7329 27.0033 63.7281 26.7661 62.4278L25.1058 54.2123C24.9279 53.503 25.1058 52.7938 25.5209 52.2027C25.8766 51.7298 26.4104 51.4343 26.944 51.3753L34.4153 50.7842C35.8384 50.7842 37.0244 51.789 37.2616 53.1484L38.9218 61.3639C39.0997 62.0732 38.9218 62.7824 38.5067 63.3735C38.151 63.8463 37.6173 64.1418 37.0837 64.201L29.6123 64.792H29.4345ZM34.5932 51.3753H34.4746L27.0033 51.9662C26.5882 51.9662 26.2325 52.2027 25.9953 52.4982C25.6987 52.912 25.5801 53.503 25.6987 54.035L27.3591 62.3096C27.5369 63.3735 28.4857 64.1418 29.553 64.1418L37.0244 63.5508C37.4394 63.4917 37.7952 63.3144 38.0324 62.9598C38.3289 62.546 38.4474 61.955 38.3289 61.4231L36.6686 53.2075C36.4906 52.2027 35.6605 51.4343 34.5932 51.3753Z" fill="white"/>
<path d="M53.6872 62.4869L46.2159 63.078C44.9706 63.078 43.9033 62.1914 43.7254 60.9502L42.0651 52.7346C41.8279 51.4934 42.5395 50.3704 43.6661 50.3113L51.1375 49.7202C52.3827 49.7202 53.45 50.6068 53.6279 51.848L55.2882 60.0636C55.5253 61.3048 54.8138 62.3687 53.6872 62.4869Z" fill="white"/>
<path d="M46.0966 63.3735C44.7921 63.3144 43.6654 62.3096 43.4282 61.0093L41.7679 52.7937C41.59 52.0845 41.7679 51.3752 42.1831 50.7842C42.5388 50.3114 43.0725 50.0159 43.6061 49.9567L51.0775 49.3657C52.4413 49.3657 53.6865 50.3114 53.9237 51.6708L55.584 59.8863C55.7619 60.5956 55.584 61.3048 55.1688 61.8959C54.8131 62.3687 54.2794 62.6642 53.7458 62.7234L46.2744 63.3144L46.0966 63.3735ZM51.2553 50.0159H51.1367L43.6654 50.6068C43.2503 50.666 42.8946 50.8433 42.6574 51.1979C42.3609 51.6116 42.2424 52.2027 42.3609 52.7346L44.0212 60.9502C44.1991 62.0141 45.1479 62.7824 46.2152 62.7824L53.6865 62.1914C54.1015 62.1914 54.4573 61.955 54.6945 61.6594C54.991 61.2457 55.1096 60.6546 54.991 60.1227L53.3307 51.9071C53.1528 50.8433 52.2633 50.0749 51.2553 50.0159Z" fill="white"/>
<path d="M86.9527 59.709L79.4814 60.3591C78.2362 60.3591 77.1688 59.4725 76.991 58.2314L75.3307 50.0158C75.0936 48.7746 75.8051 47.6516 76.9317 47.5925L84.403 47.0015C85.6483 47.0015 86.7156 47.888 86.8935 49.0702L88.5541 57.2857C88.7912 58.5269 88.0794 59.6499 86.9527 59.709Z" fill="white"/>
<path d="M79.3621 60.6549C78.0576 60.5957 76.9309 59.5909 76.6938 58.2906L75.0335 50.075C74.8556 49.3658 75.0335 48.6566 75.4486 48.0656C75.8044 47.5927 76.338 47.2972 76.8716 47.2381L84.343 46.647C85.7069 46.647 86.8927 47.5927 87.1892 48.9521L88.8496 57.2268C89.0275 57.936 88.8496 58.6453 88.4346 59.2363C88.0787 59.7091 87.5451 60.0047 87.0113 60.0638L79.5401 60.6549H79.3621ZM84.5209 47.2381H84.4023L76.9309 47.8291C76.5159 47.8291 76.1601 48.0656 75.9229 48.3611C75.6265 48.7748 75.5079 49.3659 75.6265 49.8978L77.2868 58.1134C77.4647 59.1772 78.4134 59.9456 79.4807 59.9456L86.952 59.3545C87.3672 59.2954 87.7229 59.1182 87.9601 58.7635C88.2567 58.3498 88.3753 57.7587 88.2567 57.2268L86.5963 49.1294C86.4184 48.0656 85.5883 47.2972 84.5209 47.2381Z" fill="white"/>
<path d="M40.9392 82.819L33.4678 83.4096C32.2226 83.4096 31.1553 82.5232 30.9774 81.2819L29.3171 73.0669C29.0799 71.8254 29.7914 70.7024 30.9181 70.6433L38.3894 70.0522C39.6346 70.0522 40.702 70.9388 40.8799 72.1796L42.5401 80.3955C42.7773 81.6368 42.0658 82.7007 40.9392 82.819Z" fill="white"/>
<path d="M33.288 83.7055C31.9835 83.6464 30.8568 82.6417 30.6196 81.3412L28.9593 73.1262C28.7814 72.4163 28.9593 71.7073 29.3745 71.1163C29.7302 70.6435 30.2639 70.3479 30.7975 70.2888L38.2689 69.6978C39.692 69.6978 40.8779 70.7025 41.1151 72.0624L42.7754 80.2774C42.9533 80.9863 42.7754 81.6962 42.3603 82.2868C42.0045 82.76 41.4708 83.0558 40.9372 83.1149L33.4658 83.7055H33.288ZM38.4467 70.2888H38.3282L30.8568 70.8798C30.4418 70.939 30.086 71.1162 29.8488 71.4709C29.5523 71.8846 29.4338 72.4755 29.5523 73.0079L31.2126 81.2229C31.3905 82.2868 32.3393 83.0558 33.4066 83.0558L40.8779 82.4642C41.293 82.4051 41.6487 82.2276 41.8859 81.8736C42.1825 81.4595 42.3011 80.8689 42.1825 80.3365L40.5221 72.1797C40.3442 71.1754 39.5141 70.4071 38.4467 70.2888Z" fill="white"/>
<path d="M57.5407 81.4001L50.0694 81.9916C48.8242 81.9916 47.7568 81.1052 47.5789 79.8639L45.9186 71.6482C45.6814 70.4069 46.3931 69.2839 47.5196 69.2249L54.991 68.6338C56.2362 68.6338 57.3036 69.5204 57.4814 70.7616L59.1417 78.9775C59.3789 80.2179 58.6673 81.3409 57.5407 81.4001Z" fill="white"/>
<path d="M49.95 82.3459C48.6455 82.2867 47.5188 81.282 47.2817 79.9816L45.6214 71.7665C45.4435 71.0572 45.6214 70.3479 46.0365 69.7569C46.3922 69.284 46.9259 68.9885 47.4595 68.9294L54.9309 68.3384C56.2947 68.3384 57.5399 69.284 57.7771 70.6435L59.4374 78.8586C59.6153 79.5684 59.4374 80.2773 59.0224 80.8689C58.6665 81.3412 58.1329 81.637 57.5992 81.6961L50.1279 82.2867L49.95 82.3459ZM55.1088 68.9294H54.9902L47.5188 69.5204C47.1038 69.5795 46.748 69.7569 46.5108 70.1115C46.2144 70.5252 46.0958 71.1162 46.2144 71.6482L47.8746 79.8642C48.0526 80.9281 49.0013 81.6961 50.0686 81.6961L57.5399 81.1046C57.955 81.0454 58.3107 80.8689 58.5479 80.514C58.8445 80.0999 58.9631 79.5093 58.8445 78.9769L57.1841 70.7617C57.0063 69.8159 56.1169 69.0476 55.1088 68.9294Z" fill="white"/>
<path d="M74.2028 80.0415L66.7314 80.6321C65.4863 80.6321 64.4189 79.7457 64.241 78.5044L62.5808 70.2888C62.3435 69.0476 63.0551 67.9246 64.1817 67.8655L71.653 67.2744C72.8983 67.2744 73.9656 68.161 74.1435 69.4022L75.8038 77.618C76.041 78.8593 75.3295 79.9823 74.2028 80.0415Z" fill="white"/>
<path d="M66.614 80.9873C65.3096 80.9281 64.1829 79.9234 63.9457 78.623L62.2855 70.4071C62.1076 69.6979 62.2855 68.9886 62.7005 68.3975C63.0563 67.9247 63.5899 67.6291 64.1236 67.5701L71.5949 66.979C72.9588 66.979 74.204 67.9247 74.4412 69.2841L76.1015 77.4999C76.2794 78.2089 76.1015 78.9178 75.6864 79.5093C75.3307 79.9816 74.7969 80.2774 74.2633 80.3366L66.7919 80.9281L66.614 80.9873ZM71.7728 67.5701H71.6542L64.1829 68.1611C63.7678 68.2202 63.4121 68.3975 63.1749 68.7521C62.8784 69.1659 62.7598 69.7569 62.8784 70.2889L64.5387 78.5046C64.7166 79.5685 65.6653 80.3366 66.7326 80.3366L74.204 79.746C74.619 79.746 74.9748 79.5093 75.2121 79.2136C75.5085 78.8004 75.6271 78.2089 75.5085 77.6774L73.8482 69.4614C73.6703 68.3975 72.8402 67.6291 71.7728 67.5701Z" fill="white"/>
<path d="M90.865 78.682L83.3935 79.2726C82.1483 79.2726 81.081 78.3862 80.9031 77.1449L79.2428 68.9293C79.0057 67.6881 79.7172 66.5652 80.8438 66.506L88.3154 65.915C89.5606 65.915 90.6279 66.8015 90.8058 68.0427L92.466 76.2585C92.7032 77.4998 91.9323 78.5637 90.865 78.682Z" fill="white"/>
<path d="M83.2164 79.5685C81.9118 79.5094 80.7853 78.5047 80.5481 77.2042L78.8285 68.9886C78.6506 68.2793 78.8285 67.57 79.2435 66.979C79.5993 66.5062 80.133 66.2107 80.6667 66.1515L88.1375 65.5605C89.5615 65.5605 90.7474 66.5653 90.9846 67.9247L92.6448 76.1404C92.8227 76.8493 92.6448 77.5591 92.2298 78.1497C91.874 78.623 91.3404 78.9178 90.8067 78.977L83.335 79.5685H83.2164ZM88.3747 66.2107H88.2561L80.7853 66.8017C80.3702 66.8608 80.0143 67.0381 79.7772 67.3927C79.4807 67.8065 79.3621 68.3975 79.4807 68.9295L81.141 77.145C81.3189 78.2089 82.2676 78.977 83.335 78.977L90.8067 78.3864C91.2218 78.3272 91.5775 78.1497 91.8147 77.7948C92.1112 77.3817 92.2298 76.7901 92.1112 76.2587L90.4509 68.0429C90.2731 67.0381 89.443 66.2697 88.3747 66.2107Z" fill="white"/>
<path d="M44.7927 101.732L37.3213 102.323C36.0761 102.323 35.0088 101.437 34.8309 100.255L33.1706 91.9794C32.9334 90.739 33.645 89.616 34.7716 89.5569L42.2429 88.9653C43.4881 88.9653 44.5555 89.8517 44.7334 91.0339L46.3936 99.2498C46.6308 100.55 45.9193 101.673 44.7927 101.732Z" fill="white"/>
<path d="M37.202 102.678C35.8976 102.619 34.7709 101.615 34.5337 100.314L32.8734 92.0981C32.6955 91.3892 32.8734 90.6803 33.2885 90.0887C33.6443 89.6164 34.1779 89.3207 34.7709 89.2615L42.2422 88.6709C43.6061 88.6709 44.8513 89.6164 45.0884 90.9751L46.7488 99.1911C46.9266 99.9 46.7488 100.61 46.3337 101.2C45.9779 101.674 45.4442 101.969 44.8513 102.028L37.3799 102.619L37.202 102.678ZM42.3608 89.2615H42.2422L34.7709 89.8521C34.3558 89.9113 34.0001 90.0887 33.7629 90.4437C33.4664 90.916 33.3478 91.4484 33.4664 91.9808L35.1266 100.196C35.3045 101.26 36.2533 102.028 37.3206 102.028L44.792 101.437C45.207 101.378 45.5628 101.2 45.8001 100.846C46.0965 100.373 46.2151 99.8409 46.0965 99.3094L44.3769 91.1526C44.199 90.0887 43.3689 89.3207 42.3608 89.2615Z" fill="white"/>
<path d="M61.3961 100.373L53.9248 100.965C52.6796 100.965 51.6122 100.077 51.4343 98.8961L49.7741 90.6801C49.5369 89.4388 50.2484 88.3158 51.375 88.2566L58.8464 87.666C60.0915 87.666 61.1589 88.5524 61.3368 89.7346L62.9971 97.9496C63.2936 99.1909 62.582 100.255 61.3961 100.373Z" fill="white"/>
<path d="M53.8055 101.319C52.501 101.259 51.3743 100.255 51.1371 98.9542L49.4769 90.7392C49.299 90.0293 49.4769 89.3204 49.8919 88.7289C50.2477 88.2566 50.7814 87.9608 51.3743 87.9016L58.8456 87.311C60.2095 87.311 61.4547 88.2566 61.6919 89.6754L63.3522 97.8904C63.5301 98.6002 63.3522 99.3092 62.9371 99.8998C62.5814 100.373 62.0477 100.669 61.4547 100.728L53.9833 101.319H53.8055ZM58.9642 87.9016H58.8456L51.3743 88.4932C50.9592 88.5524 50.6035 88.7289 50.3663 89.0838C50.0698 89.557 49.9512 90.0885 50.0698 90.6209L51.7302 98.8359C51.908 99.8998 52.8567 100.669 53.924 100.669L61.3954 100.077C61.8104 100.018 62.1663 99.8406 62.4035 99.4866C62.6999 99.0134 62.8185 98.4819 62.6999 97.9495L61.0396 89.7345C60.8617 88.7289 60.0316 87.9608 58.9642 87.9016Z" fill="white"/>
<path d="M78.0582 99.0137L70.5869 99.6052C69.3417 99.6052 68.2743 98.7179 68.0964 97.5367L66.4362 89.3207C66.199 88.0794 66.9106 86.9564 68.0371 86.8972L75.5085 86.3066C76.7538 86.3066 77.821 87.193 77.9989 88.3752L79.6593 96.6494C79.8964 97.8315 79.1849 98.8954 78.0582 99.0137Z" fill="white"/>
<path d="M70.4677 99.9C69.1631 99.8409 68.0365 98.8362 67.7993 97.5366L66.139 89.3207C65.9611 88.6118 66.139 87.9019 66.5541 87.3113C66.9098 86.838 67.4435 86.5423 68.0365 86.5423L75.5078 85.9517C76.8716 85.9517 78.1168 86.8972 78.354 88.316L80.0143 96.531C80.1922 97.2409 80.0143 97.9498 79.5992 98.5413C79.2435 99.0136 78.7098 99.3094 78.1168 99.3686L70.6455 99.9592L70.4677 99.9ZM75.6263 86.5423H75.5078L68.0365 87.1338C67.6214 87.193 67.2656 87.3704 67.0284 87.7244C66.7319 88.1977 66.6134 88.7301 66.7319 89.2615L68.3923 97.4775C68.5702 98.5413 69.5189 99.3094 70.5862 99.3094L78.0575 98.7179C78.4725 98.6596 78.8284 98.4822 79.0656 98.1272C79.3621 97.7132 79.4806 97.1225 79.3621 96.5902L77.7017 88.316C77.4646 87.3704 76.6344 86.6014 75.6263 86.5423Z" fill="white"/>
<path d="M94.7191 97.6538L87.2478 98.2454C86.0026 98.2454 84.9353 97.359 84.7574 96.1768L83.0378 87.9609C82.8006 86.7195 83.5121 85.5965 84.6388 85.5374L92.1101 84.9468C93.3553 84.9468 94.4226 85.8332 94.6005 87.0153L96.2607 95.2313C96.5572 96.4726 95.8457 97.5364 94.7191 97.6538Z" fill="white"/>
<path d="M87.0712 98.5412C85.7666 98.482 84.64 97.4773 84.4028 96.1768L82.7425 87.9609C82.5646 87.252 82.7425 86.5421 83.1576 85.9515C83.5133 85.4783 84.0471 85.1834 84.5807 85.1243L92.0524 84.5327C93.4161 84.5327 94.6613 85.4783 94.8985 86.8379L96.5587 95.0538C96.7366 95.7628 96.5587 96.4717 96.1436 97.0632C95.7879 97.5365 95.2542 97.8313 94.6613 97.8905L87.1898 98.482L87.0712 98.5412ZM92.2302 85.1243H92.1116L84.64 85.7149C84.225 85.774 83.8692 85.9515 83.6319 86.3064C83.3355 86.7196 83.2169 87.3111 83.3355 87.8426L84.9958 96.0585C85.1737 97.1224 86.1224 97.8905 87.1898 97.8905L94.6613 97.2999C95.0764 97.2999 95.4321 97.0632 95.6693 96.7083C95.9658 96.236 96.0843 95.7036 95.9658 95.1722L94.3055 86.897C94.1276 86.0106 93.2975 85.2426 92.2302 85.1243Z" fill="white"/>
<path d="M48.6462 120.706L41.1749 121.296C39.9297 121.296 38.8623 120.41 38.6844 119.228L37.0241 111.012C36.7869 109.77 37.4985 108.647 38.6251 108.588L46.0965 107.998C47.3416 107.998 48.409 108.884 48.5869 110.066L50.2472 118.282C50.4844 119.523 49.7728 120.587 48.6462 120.706Z" fill="white"/>
<path d="M41.0574 121.592C39.7529 121.533 38.6263 120.528 38.3891 119.228L36.7288 111.012C36.551 110.303 36.7288 109.594 37.1439 109.002C37.4997 108.529 38.0333 108.234 38.567 108.175L46.0383 107.583C47.4022 107.583 48.6473 108.529 48.8845 109.948L50.5448 118.164C50.7227 118.873 50.5448 119.582 50.1298 120.173C49.774 120.646 49.2403 120.941 48.6473 121L41.176 121.592H41.0574ZM46.2162 108.234H46.0976L38.6263 108.825C38.2112 108.825 37.8554 109.061 37.6183 109.416C37.3218 109.83 37.2032 110.421 37.3218 110.953L38.9821 119.168C39.16 120.232 40.1087 121 41.176 121L48.6473 120.41C49.0624 120.351 49.4182 120.173 49.6554 119.818C49.9519 119.405 50.0705 118.814 49.9519 118.282L48.2916 110.066C48.0544 109.061 47.2243 108.293 46.2162 108.234Z" fill="white"/>
<path d="M65.3082 119.346L57.8369 119.936C56.5917 119.936 55.5243 119.05 55.3464 117.868L53.6862 109.594C53.449 108.352 54.1606 107.229 55.2871 107.17L62.7585 106.58C64.0037 106.58 65.071 107.466 65.2489 108.648L66.9093 116.863C67.1464 118.164 66.4348 119.227 65.3082 119.346Z" fill="white"/>
<path d="M57.6591 120.232C56.3545 120.173 55.2279 119.168 54.9907 117.868L53.3304 109.594C53.1525 108.884 53.3304 108.175 53.7455 107.584C54.1012 107.111 54.6349 106.815 55.1686 106.756L62.6399 106.166C64.0037 106.166 65.2489 107.111 65.4861 108.471L67.1464 116.686C67.3243 117.396 67.1464 118.104 66.7313 118.696C66.3756 119.168 65.8419 119.464 65.3082 119.523L57.8369 120.114L57.6591 120.232ZM62.8177 106.815H62.6992L55.2279 107.407C54.8128 107.466 54.457 107.643 54.2198 107.997C53.9233 108.412 53.8048 109.002 53.9233 109.535L55.5837 117.809C55.7616 118.873 56.7103 119.642 57.7777 119.642L65.2489 119.05C65.664 118.991 66.0198 118.813 66.257 118.459C66.5535 118.045 66.672 117.455 66.5535 116.922L64.8931 108.707C64.7153 107.702 63.8851 106.934 62.8177 106.815Z" fill="white"/>
<path d="M81.9117 117.927L74.4404 118.518C73.1952 118.518 72.1279 117.631 71.95 116.449L70.2897 108.234C70.0525 106.993 70.7641 105.87 71.8908 105.811L79.362 105.22C80.6073 105.22 81.6746 106.107 81.9117 107.289L83.5721 115.504C83.75 116.745 83.0384 117.868 81.9117 117.927Z" fill="white"/>
<path d="M74.3212 118.873C73.0166 118.814 71.89 117.809 71.6528 116.509L69.9925 108.293C69.8146 107.584 69.9925 106.875 70.4076 106.284C70.7633 105.811 71.2971 105.515 71.8307 105.457L79.3021 104.865C80.6658 104.865 81.9111 105.811 82.1483 107.23L83.8085 115.446C83.9864 116.154 83.8085 116.863 83.3935 117.455C83.0377 117.927 82.504 118.223 81.9704 118.282L74.4991 118.873H74.3212ZM79.48 105.457H79.3614L71.89 106.047C71.475 106.107 71.1191 106.284 70.8819 106.638C70.5855 107.052 70.4669 107.644 70.5855 108.175L72.2458 116.391C72.4237 117.455 73.3724 118.223 74.4398 118.223L81.9111 117.632C82.3262 117.573 82.6819 117.396 82.9191 117.041C83.2156 116.627 83.3342 116.036 83.2156 115.504L81.5553 107.289C81.3774 106.284 80.5472 105.515 79.48 105.457Z" fill="white"/>
<path d="M98.5737 116.567L91.1026 117.159C89.8574 117.159 88.7901 116.273 88.6122 115.09L86.9518 106.874C86.7146 105.633 87.4262 104.51 88.5529 104.451L96.024 103.86C97.2692 103.86 98.3365 104.747 98.5144 105.929L100.175 114.203C100.412 115.385 99.7002 116.508 98.5737 116.567Z" fill="white"/>
<path d="M90.9836 117.513C89.6791 117.454 88.5525 116.449 88.3153 115.15L86.6546 106.934C86.4767 106.225 86.6546 105.515 87.0697 104.924C87.4254 104.451 87.9592 104.155 88.4932 104.097L95.9643 103.505C97.328 103.505 98.5139 104.451 98.8104 105.811L100.471 114.086C100.649 114.795 100.471 115.503 100.056 116.095C99.6998 116.567 99.1662 116.863 98.5732 116.922L91.1021 117.513H90.9836ZM96.0829 104.097H95.9643L88.4932 104.688C88.0778 104.747 87.722 104.924 87.4847 105.278C87.1883 105.692 87.0697 106.284 87.1883 106.815L88.849 115.031C89.0269 116.095 89.9756 116.863 91.0429 116.863L98.5139 116.273C98.929 116.213 99.2847 116.036 99.5219 115.681C99.8184 115.267 99.937 114.676 99.8184 114.144L98.1581 105.929C97.9803 104.924 97.1501 104.155 96.0829 104.097Z" fill="white"/>
<path d="M52.5016 139.678L45.0302 140.269C43.7851 140.269 42.7177 139.382 42.5398 138.2L40.8796 129.984C40.6424 128.743 41.3539 127.62 42.4805 127.562L49.9518 126.97C51.1971 126.97 52.2644 127.857 52.4423 129.039L54.1026 137.255C54.3398 138.496 53.6282 139.56 52.5016 139.678Z" fill="#2E3038"/>
<path d="M69.1637 138.259L61.6924 138.85C60.4472 138.85 59.3799 137.963 59.202 136.781L57.5417 128.566C57.3045 127.325 58.016 126.202 59.1427 126.143L66.614 125.551C67.8592 125.551 68.9265 126.439 69.1044 127.62L70.7647 135.836C71.0019 137.077 70.2904 138.2 69.1637 138.259Z" fill="#2E3038"/>
<path d="M85.7653 136.9L78.294 137.491C77.0487 137.491 75.9814 136.604 75.8036 135.422L74.1432 127.207C73.9061 125.966 74.6176 124.843 75.7443 124.783L83.2156 124.193C84.4608 124.193 85.5282 125.079 85.7061 126.261L87.3663 134.476C87.6035 135.718 86.8919 136.782 85.7653 136.9Z" fill="#2E3038"/>
<path d="M102.429 135.54L94.9579 136.132C93.7127 136.132 92.6454 135.245 92.4675 134.063L90.8073 125.847C90.5701 124.606 91.2816 123.483 92.4082 123.424L99.8793 122.833C101.124 122.833 102.192 123.719 102.37 124.902L104.031 133.118C104.268 134.358 103.556 135.422 102.429 135.54Z" fill="#2E3038"/>
<path d="M60.0915 68.6931C57.8975 68.6931 55.7035 66.8017 55.2292 64.3784L51.7899 47.6517C51.4934 46.4106 51.7899 45.0512 52.5015 44.0464C53.0945 43.219 54.0432 42.687 55.0513 42.6279L70.1717 41.3867C72.4843 41.2094 74.8562 43.1598 75.3305 45.7013L78.7698 62.428C79.0662 63.6691 78.8291 64.9695 78.0581 66.0333C77.4652 66.8609 76.5165 67.3928 75.4491 67.4518L60.3286 68.6931H60.0915ZM70.5276 41.5049H70.231L55.1106 42.7461C54.1025 42.8052 53.2131 43.3371 52.6201 44.1055C51.9085 45.1102 51.6713 46.4106 51.9085 47.5927L55.3477 64.3194C55.8814 66.8017 58.1347 68.6931 60.3879 68.5158L75.5084 67.2746C76.5165 67.2154 77.4059 66.6835 77.9988 65.9151C78.7105 64.9103 78.9476 63.6101 78.7105 62.428L75.2712 45.7013C74.7376 43.3371 72.7215 41.5049 70.5276 41.5049Z" fill="#2E3038"/>
<path d="M60.8616 66.8019C58.9049 66.8019 57.0667 65.147 56.6516 63.0192L53.7461 48.7158C53.509 47.652 53.7461 46.4699 54.3984 45.5833C54.932 44.874 55.7621 44.4012 56.6516 44.3421L69.5782 43.2782C71.5942 43.1009 73.6103 44.815 74.0847 47.0609L76.9902 61.3643C77.2275 62.4281 76.9902 63.6103 76.338 64.4968C75.8043 65.206 74.9742 65.6789 74.0847 65.738L61.1582 66.8019C61.0396 66.8019 60.9209 66.8019 60.8616 66.8019ZM69.7561 43.5737C69.6968 43.5737 69.5782 43.5737 69.5189 43.5737L56.5924 44.6376C55.7622 44.6967 55.0506 45.1104 54.5763 45.7606C53.9833 46.5881 53.7461 47.652 53.9833 48.6567L56.8888 62.9601C57.3039 65.0878 59.2014 66.6245 61.0989 66.4473L74.0254 65.3834C74.8556 65.3243 75.5671 64.9105 76.0415 64.2604C76.6344 63.4329 76.8716 62.369 76.6344 61.3643L73.7289 47.0609C73.3139 45.1105 71.5942 43.5737 69.7561 43.5737Z" fill="#2E3038"/>
<path d="M61.8707 64.2011C60.2104 64.0828 58.7873 62.8416 58.4909 61.1867L56.2376 50.1933C56.0597 49.3067 56.2376 48.4201 56.7119 47.6518C57.127 47.0607 57.8385 46.706 58.5501 46.647L68.5118 45.8195C70.1129 45.7012 71.7732 47.0016 72.129 48.8338L74.3822 59.8864C74.5601 60.773 74.3822 61.6596 73.8485 62.4279C73.4334 63.019 72.7812 63.3735 72.0104 63.4327L62.0486 64.2601L61.8707 64.2011ZM68.7491 46.2923H68.5712L58.6094 47.1197C58.0164 47.1789 57.4828 47.4744 57.127 47.9473C56.6526 48.5974 56.5341 49.3658 56.7119 50.1341L58.9652 61.1867C59.2617 62.7234 60.6848 63.9056 62.1079 63.7873L72.0697 62.9598C72.6626 62.9008 73.1963 62.6052 73.552 62.1324C74.0265 61.4823 74.1451 60.7139 73.9672 59.9455L71.7139 48.8929C71.4174 47.4744 70.2315 46.3514 68.7491 46.2923Z" fill="#2E3038"/>
<path d="M70.3493 61.1274L62.878 61.7185C61.6328 61.7185 60.5654 60.8319 60.3875 59.5907L58.7272 51.3752C58.49 50.134 59.2017 49.011 60.3282 48.9518L67.7996 48.3608C69.0448 48.3608 70.1121 49.2474 70.29 50.4886L71.9503 58.7041C72.1875 59.9453 71.4759 61.0092 70.3493 61.1274Z" fill="#2E3038"/>
<path d="M111.916 62.4281C111.916 62.4281 84.6992 56.1039 83.1576 55.8084C81.6158 55.5129 75.3305 53.6215 73.848 53.6806C72.3657 53.7397 67.0883 54.449 66.0802 54.9809C65.0722 55.5129 65.428 55.9857 65.9616 55.9266L71.5356 55.1582L74.4411 56.8131C74.4411 56.8131 72.6621 58.5863 72.5436 59.7684C72.3064 62.7237 72.3657 63.4329 73.0179 63.3146C73.6701 63.1964 73.7887 59.8866 73.7887 59.8866L74.2632 59.532L74.7375 62.0144C74.7375 62.0144 75.3898 62.9009 75.7455 61.8961C75.9827 61.246 75.5084 59.6501 75.5084 59.6501L76.4571 58.8227C76.4571 58.8227 76.6943 60.8914 77.1687 61.1278C77.643 61.3642 77.8802 61.1278 77.8209 60.7141C77.7616 60.3004 77.5245 58.7637 77.5245 58.7637L79.244 57.6997C79.244 57.6997 106.935 69.2842 109.781 69.7571C111.738 69.9935 113.754 69.8753 115.652 69.4024L111.916 62.4281Z" fill="white"/>
<path d="M111.62 70.2298C111.027 70.2298 110.374 70.1707 109.781 70.1116C106.935 69.6979 81.6747 59.1182 79.3028 58.1134L77.8798 58.9999C77.939 59.4137 78.1169 60.4184 78.1169 60.7139C78.1762 61.0095 78.0576 61.246 77.8205 61.4232C77.5833 61.6005 77.2274 61.6005 76.9902 61.4232C76.5752 61.1868 76.338 60.182 76.2194 59.4137L75.8044 59.7683C75.9229 60.2412 76.2194 61.4232 75.9822 62.0143C75.8637 62.428 75.6265 62.6053 75.33 62.6645C74.8556 62.7235 74.4998 62.2507 74.4405 62.1916C74.4405 62.1325 74.3812 62.1325 74.3812 62.0734L74.0254 60.0638C73.9662 61.6597 73.729 63.551 73.0174 63.6101C72.7803 63.6692 72.6024 63.6101 72.4245 63.4328C72.0094 63.0782 72.0094 62.1916 72.2466 59.7092C72.3059 58.7045 73.4325 57.4041 73.9662 56.8722L71.4757 55.4537L66.0205 56.163C65.6647 56.222 65.3682 56.0447 65.1903 55.7492C65.131 55.5127 65.131 55.099 65.9612 54.6261C67.0878 54.0352 72.4838 53.3259 73.8476 53.2668C74.915 53.2077 78.4727 54.1534 81.0224 54.8035C81.9711 55.0399 82.8014 55.2764 83.2164 55.3945C84.7581 55.7492 111.679 61.9552 111.975 62.0143C112.035 62.0143 112.153 62.0734 112.153 62.1325L115.948 69.166C116.007 69.225 116.007 69.3432 115.948 69.4024C115.889 69.4615 115.829 69.5206 115.77 69.5797C114.406 70.0525 113.043 70.2298 111.62 70.2298ZM79.2435 57.4632C79.3028 57.4632 79.3028 57.4632 79.3621 57.4632C79.6586 57.5815 107.054 69.0477 109.841 69.4615C111.62 69.6979 113.458 69.5797 115.236 69.166L111.738 62.6053C109.663 62.1325 84.5802 56.3402 83.0978 55.9856C82.6828 55.8674 81.8526 55.6901 80.8446 55.3945C78.4727 54.7444 74.8556 53.7987 73.8476 53.8578C72.3652 53.9169 67.1471 54.6262 66.1983 55.099C65.7833 55.3354 65.724 55.4537 65.724 55.5127C65.724 55.5719 65.7833 55.5127 65.8426 55.5127H65.9019L71.4757 54.8035C71.535 54.8035 71.5943 54.8035 71.6536 54.8626L74.5591 56.5175C74.6184 56.5767 74.6777 56.6357 74.6777 56.7539C74.6777 56.8722 74.6777 56.9313 74.6184 56.9904C74.144 57.4632 72.8989 58.8817 72.7803 59.7092C72.721 60.8322 72.5431 62.7235 72.7803 62.9599C72.8396 62.9599 72.8396 62.9599 72.8989 62.9599C73.136 62.7827 73.3732 61.305 73.3732 59.7683C73.3732 59.6501 73.4325 59.591 73.4918 59.5319L73.9662 59.1772C74.0254 59.1182 74.144 59.1182 74.2626 59.1182C74.3812 59.1772 74.4405 59.2364 74.4405 59.3546L74.915 61.7779C75.0335 61.8961 75.1521 61.9552 75.2114 61.9552C75.2707 61.9552 75.33 61.8961 75.3893 61.7187C75.4486 61.0095 75.3893 60.3002 75.1521 59.6501C75.0928 59.5319 75.1521 59.4137 75.2707 59.3546L76.2194 58.5271C76.2787 58.468 76.3973 58.468 76.5159 58.468C76.6345 58.5271 76.6938 58.5862 76.6938 58.7045C76.8124 59.7092 77.0495 60.6549 77.2867 60.8322C77.346 60.8913 77.4053 60.8913 77.5239 60.8322C77.5239 60.8322 77.5833 60.7731 77.5239 60.7139C77.4646 60.3002 77.2274 58.8226 77.2274 58.8226C77.2274 58.7045 77.2867 58.5862 77.3461 58.5271L79.0656 57.4632C79.1842 57.4041 79.1842 57.4632 79.2435 57.4632Z" fill="#2E3038"/>
<path d="M191.551 78.1498C191.551 78.1498 189.713 81.1047 190.188 81.3413C190.662 81.5779 192.619 79.2136 192.619 79.2136L191.67 82.1685C191.67 82.1685 191.611 82.7601 192.678 82.0512C193.745 81.3413 193.508 79.3911 193.508 79.3911L193.627 82.5235C193.627 82.5235 192.915 83.6465 193.923 83.5282C194.931 83.4099 195.109 80.9873 194.99 80.2775C194.753 79.3911 194.338 78.623 193.805 77.9131C193.212 77.2042 191.729 77.3817 191.551 78.1498Z" fill="white"/>
<path d="M193.745 83.8239C193.508 83.8239 193.27 83.7647 193.152 83.5281C192.915 83.1741 193.152 82.6417 193.33 82.4051V81.8145C193.211 81.992 193.033 82.1685 192.855 82.2868C192.262 82.7009 191.847 82.8192 191.61 82.6417C191.432 82.5234 191.373 82.346 191.373 82.1685L191.907 80.514C190.602 81.8737 190.246 81.6962 190.069 81.637C189.95 81.5779 189.891 81.4596 189.831 81.3413C189.653 80.7506 190.78 78.8586 191.314 78.0906C191.492 77.6183 191.907 77.3225 192.381 77.2633C192.974 77.0859 193.626 77.2633 194.041 77.7356C194.634 78.4455 195.109 79.3319 195.286 80.2774C195.346 80.9281 195.286 81.5779 195.168 82.2276C194.871 83.469 194.338 83.8239 193.982 83.883C193.923 83.8239 193.804 83.8239 193.745 83.8239ZM193.685 83.2333C193.745 83.2333 193.804 83.2333 193.863 83.2333C194.16 83.1741 194.397 82.76 194.575 82.0511C194.693 81.4596 194.753 80.869 194.693 80.2774C194.456 79.4502 194.101 78.6821 193.567 78.0314C193.27 77.7356 192.855 77.6774 192.5 77.7948C192.262 77.8539 192.025 78.0314 191.907 78.268C191.907 78.3272 191.907 78.3272 191.847 78.3272C191.314 79.1544 190.839 80.0999 190.484 81.0455C191.195 80.4549 191.847 79.8051 192.44 79.0361C192.559 78.9178 192.677 78.9178 192.796 78.9769C192.915 79.0361 192.974 79.2136 192.915 79.3319L192.025 82.1103C192.203 82.0511 192.381 81.9328 192.559 81.8145C193.093 81.3413 193.33 80.6915 193.27 80.0408V79.391C193.27 79.2136 193.389 79.0952 193.567 79.0952C193.745 79.0952 193.863 79.2136 193.863 79.3319C193.863 79.5685 193.923 79.8051 193.863 79.9816L193.923 82.4643C193.923 82.5234 193.923 82.5826 193.863 82.6417C193.804 82.8192 193.745 82.9967 193.685 83.2333Z" fill="#2E3038"/>
<path d="M171.034 53.562C171.034 53.562 174.414 54.2122 176.193 55.1578C177.972 56.1035 191.55 70.4069 191.906 72.003C192.321 73.6574 193.032 75.2537 194.04 76.6133C194.753 77.5588 197.065 80.3954 197.243 81.5776C197.421 82.7598 196.947 83.7053 196.354 82.8781C195.761 82.0508 194.516 80.1588 193.507 79.3907C192.499 78.6227 189.415 77.972 189.415 77.972C189.415 78.9175 189.356 79.864 189.178 80.8095C188.882 82.1691 187.874 83.3504 187.755 82.6415C187.577 81.4001 187.459 80.0997 187.518 78.8001C187.637 77.4405 187.637 75.0762 187.637 75.0762L188.052 72.4753C188.052 72.4753 179.039 66.8014 175.659 65.0283C172.279 63.2552 169.196 61.2456 169.196 61.2456L167.061 61.0683C167.061 61.0683 167.179 57.3447 168.484 55.808C169.255 55.0397 170.085 54.2122 171.034 53.562Z" fill="white"/>
<path d="M196.768 83.4687C196.472 83.4687 196.234 83.2922 196.116 83.0555C195.582 82.2283 194.278 80.3363 193.329 79.6274C192.617 79.095 190.541 78.5635 189.711 78.3861C189.711 79.2133 189.652 80.0997 189.474 80.9278C189.296 81.9917 188.585 83.233 187.932 83.233C187.695 83.233 187.458 82.9964 187.458 82.7598C187.28 81.4593 187.162 80.1588 187.221 78.8593C187.339 77.5588 187.339 75.1945 187.339 75.1353L187.695 72.7119C186.45 71.9438 178.564 67.038 175.54 65.383C172.516 63.7281 169.551 61.955 169.077 61.6594L167.002 61.4821C166.824 61.4821 166.705 61.3639 166.705 61.1866C166.705 61.0092 166.824 57.3447 168.187 55.749C168.958 54.8624 169.848 54.0349 170.796 53.3847C170.856 53.3257 170.915 53.3257 171.034 53.3257C171.152 53.3257 174.473 53.9758 176.251 54.9215C178.03 55.8672 191.727 70.1705 192.142 71.9438C192.557 73.5391 193.269 75.0762 194.218 76.4358L194.574 76.9081C195.938 78.6227 197.361 80.5138 197.48 81.5776C197.598 82.3457 197.48 83.2922 196.887 83.4687C196.887 83.4687 196.827 83.4687 196.768 83.4687ZM189.415 77.6771H189.474C189.593 77.7363 192.617 78.3269 193.684 79.1541C194.752 79.9823 196.057 81.8734 196.59 82.7006C196.709 82.8781 196.768 82.8781 196.768 82.8781C196.946 82.464 197.005 82.0508 196.946 81.5776C196.827 80.6321 195.049 78.3269 194.159 77.2039L193.803 76.7316C192.794 75.3128 192.083 73.7166 191.609 72.003C191.312 70.7025 177.912 56.3991 176.014 55.3353C174.413 54.626 172.753 54.094 171.093 53.7985C170.203 54.4487 169.433 55.1579 168.721 55.9854C167.713 57.1675 167.476 59.8862 167.417 60.7728L169.255 60.891C169.314 60.891 169.373 60.891 169.373 60.9502C169.373 60.9502 172.516 62.9598 175.836 64.6738C179.157 66.3878 188.11 72.0621 188.229 72.1213C188.347 72.1804 188.407 72.2987 188.347 72.4161L187.932 75.017C187.932 75.0762 187.932 77.3814 187.814 78.741C187.754 79.9823 187.814 81.1645 187.992 82.4048C188.407 81.9325 188.703 81.341 188.822 80.6912C189 79.7457 189.059 78.8593 189.059 77.9128C189.059 77.7954 189.118 77.7363 189.178 77.6771C189.296 77.7363 189.355 77.6771 189.415 77.6771Z" fill="#2E3038"/>
<path d="M149.569 91.8031L150.162 99.3092C150.162 99.3092 147.375 124.134 152.948 131.285C158.522 138.437 176.608 157.173 176.608 157.173L179.454 153.804C179.454 153.804 169.374 134.299 167.476 131.521C165.579 128.743 162.554 121.474 162.554 121.474C162.554 121.474 168.781 95.5853 169.255 93.2801C169.73 90.9759 169.492 84.7693 169.374 84.1787C169.255 83.5872 162.258 87.0745 158.166 88.4933C154.075 89.9121 149.569 91.8031 149.569 91.8031Z" fill="#2E3038"/>
<path d="M176.549 157.527C176.49 157.527 176.372 157.468 176.312 157.409C176.134 157.232 158.167 138.554 152.594 131.462C147.02 124.369 149.629 100.255 149.748 99.25L149.155 91.803C149.155 91.6847 149.214 91.5664 149.333 91.5073C149.392 91.5073 153.78 89.7345 157.871 88.2566C159.591 87.666 161.904 86.6603 163.92 85.7739C167.893 84.0603 168.96 83.6462 169.316 83.8829C169.434 83.942 169.494 84.0603 169.494 84.1195C169.553 84.7101 169.79 90.9758 169.375 93.3392C168.96 95.5852 163.149 119.464 162.675 121.414C163.03 122.242 165.817 128.802 167.537 131.344C169.375 134.063 179.099 152.858 179.514 153.627C179.574 153.745 179.574 153.863 179.455 153.922L176.609 157.291C176.727 157.468 176.609 157.527 176.549 157.527ZM149.866 91.9805L150.4 99.3092C150.4 99.6049 147.672 124.134 153.127 131.107C158.286 137.727 174.415 154.572 176.549 156.759L179.04 153.804C178.032 151.853 168.96 134.299 167.181 131.758C165.343 129.039 162.319 121.947 162.2 121.651C162.2 121.592 162.2 121.533 162.2 121.473C162.26 121.237 168.426 95.5852 168.901 93.3392C169.316 91.2707 169.138 85.7739 169.019 84.5326C167.418 85.065 165.817 85.7148 164.216 86.4246C162.2 87.311 159.888 88.2566 158.108 88.9063C154.61 90.0885 150.756 91.6256 149.866 91.9805Z" fill="#2E3038"/>
<path d="M160.244 93.6351C160.244 93.6351 158.286 95.8219 158.82 96.3543L159.354 96.8858C159.354 96.8858 148.384 111.189 146.961 114.913C145.538 118.636 142.692 127.679 142.751 128.152C142.81 128.625 144.648 130.162 145.834 130.103C147.02 130.044 184.021 132.644 184.021 132.644L184.851 128.98L157.99 120.469C157.99 120.469 174.118 97.0041 174.889 94.8172C175.66 92.6304 174.652 85.4783 174.533 84.4144C174.415 83.3506 172.992 81.9327 171.806 82.1092C170.62 82.2867 160.54 89.4388 160.54 89.4388" fill="#2E3038"/>
<path d="M184.019 132.999C183.664 132.999 147.197 130.458 145.892 130.458C144.647 130.458 142.572 128.921 142.513 128.212C142.453 127.502 145.477 118.223 146.722 114.854C148.086 111.307 157.573 98.777 158.996 96.9451L158.641 96.5901C158.048 95.9404 159.234 94.3441 160.065 93.4577C160.183 93.3394 160.361 93.3394 160.48 93.4577C160.598 93.576 160.598 93.7535 160.48 93.8718C159.65 94.8174 158.937 95.9404 159.056 96.177L159.589 96.7084C159.709 96.8267 159.709 97.0042 159.589 97.1225C159.471 97.2408 148.62 111.426 147.256 115.091C145.774 118.932 143.106 127.561 143.046 128.212C143.165 128.507 144.825 129.925 145.833 129.925C147.138 129.925 180.284 132.171 183.782 132.408L184.494 129.216L157.87 120.823C157.751 120.764 157.692 120.706 157.692 120.646C157.633 120.587 157.692 120.469 157.751 120.41C163.326 112.312 174.058 96.531 174.592 94.8174C175.244 92.8671 174.473 86.4831 174.236 84.5329C174.117 84.0014 173.821 83.469 173.346 83.115C172.991 82.7009 172.398 82.4643 171.864 82.4643C171.034 82.5826 164.63 86.9563 160.717 89.7347C160.598 89.8521 160.42 89.7929 160.302 89.6756C160.183 89.5573 160.242 89.3798 160.361 89.2615C161.428 88.5526 170.56 82.0502 171.746 81.8737C172.516 81.8145 173.228 82.1094 173.702 82.6418C174.236 83.115 174.592 83.7056 174.77 84.4145C175.125 86.8972 175.837 92.9263 175.125 94.9357C174.414 96.9451 160.48 117.395 158.403 120.351L184.909 128.743C185.087 128.802 185.146 128.921 185.087 129.098L184.257 132.763C184.257 132.88 184.197 132.999 184.019 132.999Z" fill="#2E3038"/>
<path d="M129.704 57.6404C121.7 60.1819 122.115 60.1227 122.115 60.1227L110.492 61.8368L115.652 72.0031L129.171 73.5393C129.171 73.5393 142.394 86.0106 144.885 86.4839C147.375 86.9562 148.857 89.8529 148.857 89.8529C148.857 89.8529 147.909 91.5665 149.213 92.3346C150.518 93.1036 152.415 93.221 156.447 92.1571C160.479 91.0933 166.231 87.7834 168.9 85.6557C171.568 83.528 175.422 81.0454 174.177 79.9815C173.05 79.2134 171.864 78.5637 170.56 78.1496L158.226 65.3831L168.425 66.1515C168.425 66.1515 168.307 60.241 168.485 58.3496C168.663 56.4582 171.094 53.5622 171.094 53.5622C171.094 53.5622 158.048 52.6164 154.312 52.0254C150.577 51.4344 146.96 51.6708 145.478 52.38C143.995 53.0893 137.057 54.9807 136.701 55.0397C136.345 55.0989 129.704 57.6404 129.704 57.6404Z" fill="white"/>
<path d="M151.822 93.222C150.873 93.2812 149.925 93.0446 149.095 92.5713C147.909 91.9216 148.205 90.5619 148.561 89.7939C148.264 89.2615 146.901 87.0746 144.885 86.7206C142.394 86.2474 130.238 74.8399 129.052 73.776L115.474 72.2399L110.078 61.5416L122.115 59.8276C122.708 59.532 124.487 59.0001 129.645 57.3451C130.772 56.9314 136.228 54.8628 136.643 54.8036C137.058 54.7446 143.936 52.9123 145.359 52.2031C147.019 51.3756 150.696 51.2573 154.372 51.7893C158.048 52.3803 170.975 53.3261 171.094 53.3261L171.687 53.3851L171.331 53.858C171.331 53.858 168.959 56.695 168.781 58.4681C168.603 60.2413 168.781 66.1517 168.781 66.2109V66.5655L158.997 65.7971L170.797 78.0314C172.102 78.4455 173.347 79.0361 174.414 79.8643C174.651 80.0417 174.77 80.3366 174.77 80.5732C174.711 81.6962 172.695 83.2925 170.501 84.9469C170.026 85.3018 169.552 85.6558 169.137 86.0108C166.528 88.0201 160.776 91.4483 156.566 92.5713C154.965 92.9263 153.364 93.1629 151.822 93.222ZM115.83 71.7076L129.289 73.2446L129.349 73.3037C133.025 76.7319 142.987 85.7741 144.944 86.1882C147.553 86.6615 149.035 89.6164 149.095 89.7347L149.154 89.853L149.095 89.9713C149.095 90.0305 148.264 91.4483 149.332 92.099C150.399 92.7488 151.941 93.1037 156.388 91.9216C160.479 90.8577 166.172 87.4887 168.722 85.4793C169.137 85.1244 169.611 84.7694 170.086 84.4155C171.864 83.0558 174.118 81.4004 174.118 80.514C174.118 80.3957 174.058 80.2774 173.999 80.2183C172.932 79.4502 171.746 78.8596 170.501 78.4455H170.441L170.382 78.3864L157.514 64.9696L168.188 65.7971C168.188 64.5559 168.129 59.9458 168.248 58.2909C168.366 56.7541 169.848 54.6854 170.56 53.7988C168.01 53.6216 157.574 52.7941 154.312 52.3213C150.814 51.7893 147.197 51.9075 145.656 52.6758C144.114 53.4442 137.236 55.2765 136.761 55.3356C136.406 55.3947 132.373 56.9314 129.882 57.8771C123.064 60.064 122.411 60.3003 122.293 60.3595L122.174 60.1231L122.233 60.4186L111.027 62.0144L115.83 71.7076Z" fill="#2E3038"/>
<path d="M137.947 66.979L142.869 73.8943L144.173 72.7121L140.556 68.2793" fill="white"/>
<path d="M166.053 78.0905C166.468 78.0313 166.942 78.0313 167.357 77.9722L166.053 78.0905Z" fill="white"/>
<path d="M130.357 59.1773C131.069 61.3641 131.603 63.551 132.077 65.797C132.314 67.8066 131.365 69.6388 132.551 69.3433C133.738 69.0477 133.679 65.7378 133.679 65.7378L137.948 66.6244L139.845 62.7235C139.845 62.7235 143.344 65.856 143.284 64.2603C143.225 62.6644 139.608 55.8082 139.371 54.2125C139.134 52.6166 137.236 52.2029 135.873 53.3259C134.509 54.4489 130.357 59.1773 130.357 59.1773Z" fill="white"/>
<path d="M132.315 69.6385C132.137 69.6385 132.018 69.5795 131.9 69.5204C131.603 69.2248 131.603 68.6929 131.722 67.9245C131.84 67.2153 131.84 66.506 131.781 65.7967C131.306 63.5508 130.772 61.3639 130.12 59.2362L130.061 59.0588L130.179 58.9406C130.357 58.7633 134.449 54.2122 135.754 53.0892C136.465 52.4391 137.533 52.2027 138.481 52.5573C139.193 52.7937 139.667 53.4439 139.726 54.1532C139.845 54.8624 140.675 56.8129 141.505 58.7042C142.573 61.1276 143.581 63.3735 143.581 64.26C143.64 64.5556 143.521 64.8511 143.225 64.9693C142.513 65.324 140.853 64.0236 139.904 63.1962L138.066 66.9198L133.916 66.0332C133.916 67.038 133.738 69.343 132.552 69.5795C132.493 69.6385 132.374 69.6385 132.315 69.6385ZM132.255 69.0476C132.315 69.0476 132.374 69.0476 132.433 69.0476C133.085 68.8702 133.323 66.9789 133.323 65.6785V65.324L137.77 66.2696L139.726 62.2505L140.023 62.4869C141.268 63.6099 142.632 64.4965 142.988 64.4374C142.988 64.4374 142.988 64.3783 142.988 64.3192C142.928 63.5508 141.861 61.1275 140.912 58.9998C140.023 56.9902 139.133 55.0988 139.074 54.2714C139.015 53.7394 138.659 53.3257 138.185 53.1484C137.473 52.912 136.643 53.0892 136.05 53.6213C134.864 54.626 131.307 58.586 130.653 59.2953C131.307 61.423 131.9 63.6099 132.315 65.7967C132.374 66.5651 132.374 67.2744 132.255 68.0428C132.196 68.3383 132.196 68.6929 132.255 69.0476Z" fill="#2E3038"/>
<path d="M124.842 57.463C126.206 58.1132 127.569 58.7042 128.992 59.1771C130.534 59.6499 138.184 68.5748 137.947 66.5652C137.71 64.5556 137.175 56.872 136.701 55.0397C136.108 53.3257 135.455 51.6117 134.685 49.9567C134.685 49.9567 135.93 49.1293 133.914 48.3018C131.898 47.4744 130.356 49.0111 130.475 49.8385C130.593 50.666 130.83 52.321 130.297 52.5574C129.763 52.7938 124.842 57.463 124.842 57.463Z" fill="white"/>
<path d="M137.769 67.1563C137.176 67.1563 136.108 66.1515 133.143 63.2554C131.423 61.5414 129.466 59.65 128.874 59.4726C127.45 58.9407 126.087 58.3497 124.723 57.6996L124.367 57.5222L124.664 57.2267C125.85 56.1037 129.644 52.4984 130.178 52.2619C130.237 52.2028 130.415 51.8481 130.178 49.8977C130.178 49.3066 130.474 48.7157 131.008 48.4201C131.898 47.7699 133.024 47.5927 134.032 48.0655C134.863 48.4201 135.278 48.7747 135.338 49.3066C135.338 49.6022 135.219 49.8977 135.041 50.075C135.812 51.6709 136.464 53.3258 136.998 55.0399C137.354 56.281 137.65 60.0637 137.946 63.0781C138.065 64.6148 138.184 65.9151 138.302 66.5652C138.362 66.9199 138.184 67.0972 138.065 67.1563C137.946 67.1563 137.887 67.1563 137.769 67.1563ZM125.375 57.404C126.561 57.9951 127.806 58.527 129.051 58.9407C129.763 59.1772 131.245 60.5957 133.558 62.9007C134.982 64.3193 136.879 66.2106 137.591 66.5652C137.531 65.856 137.413 64.6148 137.235 63.1372C136.998 60.1229 136.642 56.3992 136.346 55.2172C135.753 53.5031 135.1 51.7891 134.33 50.1342L134.21 49.8977L134.448 49.7795C134.507 49.7204 134.745 49.5431 134.685 49.3658C134.626 49.1885 134.567 48.9521 133.736 48.6565C132.965 48.3019 132.016 48.4201 131.305 48.9521C130.949 49.1885 130.771 49.484 130.712 49.8977C130.949 51.6118 130.949 52.6757 130.356 52.9121C130.059 53.0303 127.628 55.2762 125.375 57.404Z" fill="#2E3038"/>
<path d="M120.396 41.1503C118.914 40.8548 117.431 40.3229 116.127 39.5544C114.466 38.4315 115.118 36.0673 116.838 35.0034C118.558 33.9395 120.692 32.4619 122.946 32.4619C125.199 32.4619 125.97 34.8852 127.571 34.9443C129.171 35.0034 133.5 33.0529 135.931 35.0625C138.362 37.0721 138.066 43.9282 137.176 45.3467C136.287 46.7652 134.567 50.016 134.567 50.016C134.567 50.016 133.144 49.6614 132.077 49.4249C131.01 49.1885 131.721 48.5383 130.535 48.8339C129.349 49.1294 128.163 49.4249 127.155 48.5975C126.147 47.77 125.851 46.8834 125.199 46.1742C124.547 45.4649 123.42 43.869 123.598 43.2781C123.716 42.6279 123.835 41.9186 123.835 41.2093L120.396 41.1503Z" fill="#2E3038"/>
<path d="M134.803 50.3112L134.566 50.2522C134.566 50.2522 133.202 49.8975 132.076 49.6611C131.72 49.602 131.364 49.3656 131.186 49.07L131.127 49.011C130.949 49.011 130.831 49.0109 130.653 49.07C129.408 49.3656 128.162 49.6611 127.036 48.7745C126.443 48.3017 125.969 47.7697 125.613 47.1196C125.435 46.8241 125.257 46.5877 125.02 46.2922C125.02 46.2922 123.063 44.0462 123.36 43.1004C123.478 42.5685 123.597 41.9775 123.597 41.4455L120.336 41.3864C118.794 41.0909 117.312 40.5589 115.948 39.7315C115.236 39.2586 114.821 38.4312 114.881 37.6037C114.999 36.4217 115.651 35.2986 116.719 34.7076L117.43 34.2939C119.09 33.2891 120.929 32.1661 123.004 32.107C124.368 32.0478 125.257 32.8754 125.969 33.5847C126.562 34.1166 127.036 34.5894 127.629 34.5894C128.281 34.5303 128.874 34.4712 129.526 34.2939C131.542 33.8801 134.329 33.23 136.167 34.7667C138.658 36.7763 138.481 43.8097 137.473 45.4647C136.582 46.8832 134.863 50.0748 134.863 50.0748L134.803 50.3112ZM131.009 48.4199C131.246 48.4199 131.483 48.5381 131.602 48.7745C131.661 48.8927 131.779 49.011 132.135 49.1292C132.965 49.3064 133.973 49.5429 134.448 49.6611C134.863 48.9518 136.226 46.4694 136.939 45.2282C137.828 43.8097 137.947 37.0718 135.752 35.2986C134.151 33.9984 131.483 34.5303 129.586 34.944C128.933 35.1214 128.222 35.2396 127.57 35.2396C126.739 35.2396 126.087 34.6485 125.494 34.0574C124.783 33.4073 124.071 32.7571 123.004 32.7571H122.945C121.047 32.7571 119.268 33.8801 117.667 34.8258L116.956 35.2396C116.066 35.7124 115.474 36.6581 115.414 37.6629C115.355 38.313 115.711 38.904 116.244 39.2586C117.49 40.027 118.913 40.4999 120.336 40.7954L124.13 40.8545V41.15C124.13 41.8593 124.012 42.5685 123.834 43.2778C123.715 43.5733 124.486 44.8736 125.376 45.8784C125.613 46.174 125.791 46.4694 126.028 46.7649C126.324 47.356 126.799 47.8289 127.273 48.2426C128.222 48.9518 129.289 48.7155 130.416 48.4199C130.653 48.4199 130.831 48.4199 131.009 48.4199Z" fill="#2E3038"/>
<path d="M119.327 40.3226C119.327 40.3226 118.141 44.519 118.379 45.1691C118.616 45.8193 118.794 46.5286 118.912 47.2378L117.252 50.0157C117.252 50.0157 117.548 51.0796 118.082 51.1387C118.734 51.316 119.387 51.6116 119.92 51.9661C119.92 51.9661 121.521 57.8175 122.055 57.9949C122.588 58.1722 123.893 58.8223 124.427 58.4677C124.96 58.1131 130.949 53.8575 131.66 53.2074C132.372 52.5572 132.075 49.3656 132.075 49.3656C132.075 49.3656 133.914 47.1196 133.202 45.5829C132.491 44.0461 130.771 44.5781 130.237 45.7011C129.704 46.8241 129.526 47.4152 129.526 47.4152C129.526 47.4152 128.221 47.8289 127.984 47.0605L127.747 46.2922C127.747 46.2922 125.494 44.5781 125.435 44.1644C125.375 43.7507 126.146 39.6133 126.146 39.6133L119.327 40.3226Z" fill="white"/>
<path d="M124.072 58.8224C123.479 58.7633 122.886 58.586 122.353 58.3496L121.997 58.2313C121.523 58.0541 120.752 56.0445 119.685 52.1435C119.151 51.8481 118.617 51.6116 118.024 51.4342C117.313 51.3752 116.957 50.2522 116.957 50.134V50.0158L118.617 47.2378C118.499 46.5877 118.321 45.9375 118.084 45.3466C117.846 44.6963 118.736 41.3274 119.032 40.3226L119.092 40.1453L126.622 39.436L126.563 39.7907C126.266 41.4456 125.792 43.928 125.851 44.2235C126.503 44.9327 127.274 45.5829 128.045 46.1149L128.104 46.174L128.401 47.0605C128.401 47.1196 128.46 47.1788 128.519 47.2378C128.816 47.356 129.112 47.356 129.409 47.2378C129.468 47.0015 129.705 46.4695 130.061 45.642C130.357 44.9327 131.069 44.4008 131.899 44.4008C132.611 44.4008 133.263 44.8737 133.559 45.5238C134.271 47.0015 132.848 49.0701 132.492 49.543C132.551 50.3113 132.729 52.8528 131.958 53.503C131.188 54.1531 125.199 58.4678 124.725 58.7633C124.428 58.8224 124.25 58.8815 124.072 58.8224ZM117.609 50.0749C117.728 50.4296 117.965 50.8433 118.143 50.8433C118.854 51.0205 119.507 51.3161 120.1 51.7298L120.218 51.7889L120.278 51.9071C120.989 54.5668 121.938 57.463 122.293 57.7585C122.412 57.8176 122.531 57.8176 122.649 57.8767C123.124 58.0541 124.072 58.4086 124.369 58.2313C124.843 57.8767 130.891 53.6212 131.543 52.9711C131.958 52.6164 132.018 50.6659 131.899 49.4248V49.3066L131.958 49.1883C131.958 49.1883 133.678 47.0605 133.026 45.7011C132.848 45.2283 132.433 44.9328 131.899 44.9328C131.306 44.9919 130.832 45.2874 130.595 45.8193C130.061 46.9423 129.883 47.4743 129.883 47.4743L129.824 47.5925L129.705 47.6516C129.231 47.8289 128.697 47.8289 128.223 47.6516C127.986 47.5334 127.867 47.356 127.749 47.1196L127.511 46.4695C126.029 45.2874 125.199 44.5781 125.14 44.2235C125.318 42.8051 125.495 41.3865 125.792 39.968L119.447 40.559C118.914 42.4504 118.38 44.6373 118.558 44.9919C118.795 45.7011 119.032 46.4104 119.151 47.1196V47.2378L117.609 50.0749Z" fill="#2E3038"/>
<path d="M75.4475 55.4536C75.4475 55.4536 72.9571 56.8721 71.949 57.404C70.941 57.936 69.4585 57.9951 69.933 58.5862C70.4073 59.1772 73.135 58.1724 73.135 58.1724C73.135 58.1724 76.2183 58.1724 77.4042 57.9951C78.1159 57.8769 78.7088 57.404 79.0053 56.6948" fill="white"/>
<path d="M70.5859 59.0588C70.2895 59.1179 69.9337 58.9997 69.6965 58.7632C69.5779 58.586 69.5187 58.4087 69.5779 58.2313C69.6965 57.8767 70.1709 57.6994 70.7638 57.5221C71.1196 57.4039 71.4754 57.2857 71.8311 57.1083C72.8392 56.5764 75.3297 55.1579 75.3297 55.1579C75.4483 55.0988 75.6854 55.0988 75.7447 55.2761C75.804 55.3943 75.7447 55.5716 75.6261 55.6898C75.5668 55.6898 73.1357 57.1083 72.1277 57.6403C71.7718 57.8176 71.3568 57.9949 70.9417 58.1131C70.7045 58.1722 70.4081 58.2905 70.1709 58.4087C70.3488 58.645 71.7125 58.4087 73.0171 57.8767C73.0764 57.8767 73.0764 57.8767 73.1357 57.8767C73.195 57.8767 76.2191 57.8767 77.4051 57.6994C77.998 57.5812 78.5316 57.1675 78.7095 56.6355C78.7688 56.4582 78.9467 56.3991 79.0653 56.4582C79.1839 56.5173 79.3025 56.6946 79.2432 56.8128C78.9467 57.5812 78.2352 58.1722 77.4051 58.2905C76.2784 58.4087 73.5507 58.4677 73.1357 58.4677C72.3649 58.8224 71.4754 58.9997 70.5859 59.0588Z" fill="#2E3038"/>
<path d="M176.548 157.231L176.252 162.906L172.635 170.412C172.397 170.885 172.813 171.89 173.939 171.417C175.066 170.944 177.497 168.698 178.801 167.634C180.106 166.57 182.181 163.91 183.426 162.965C184.671 162.019 186.035 160.069 185.976 159.655C185.917 159.242 179.394 153.803 179.394 153.803L176.548 157.231Z" fill="#184AFB"/>
<path d="M173.464 171.83C172.872 171.83 172.338 171.358 172.338 170.766C172.338 170.59 172.338 170.472 172.456 170.294C172.694 169.821 175.718 163.497 176.073 162.847L176.37 157.232C176.37 157.173 176.37 157.114 176.429 157.055L179.275 153.686C179.394 153.567 179.572 153.567 179.69 153.627C186.331 159.064 186.391 159.478 186.391 159.655C186.45 160.246 184.908 162.374 183.722 163.26C182.892 163.97 182.181 164.738 181.469 165.506C180.758 166.334 179.928 167.162 179.097 167.871C178.742 168.166 178.267 168.58 177.734 168.994C176.429 170.117 175.006 171.358 174.117 171.712C173.88 171.771 173.642 171.83 173.464 171.83ZM176.844 157.35L176.548 162.965C176.548 163.024 176.548 163.024 176.548 163.083L172.931 170.59C172.872 170.766 172.931 171.003 173.049 171.121C173.227 171.299 173.524 171.358 173.88 171.18C174.65 170.885 176.133 169.584 177.319 168.58C177.852 168.166 178.267 167.752 178.682 167.457C179.512 166.748 180.283 165.98 180.936 165.151C181.647 164.324 182.418 163.497 183.307 162.788C184.315 161.96 185.145 160.955 185.738 159.773C185.323 159.242 181.825 156.226 179.453 154.276L176.844 157.35Z" fill="#2E3038"/>
<path d="M183.486 163.024C184.731 162.137 186.095 160.128 186.036 159.714C185.798 159.419 185.561 159.123 185.265 158.887C184.375 159.832 182.597 161.842 180.996 163.497C179.217 165.447 174.592 169.762 172.932 171.358C173.228 171.595 173.643 171.595 173.999 171.417C175.126 170.944 177.557 168.698 178.861 167.634C180.166 166.57 182.241 163.969 183.486 163.024Z" fill="#2E3038"/>
<path d="M173.465 171.83C173.168 171.83 172.931 171.771 172.753 171.595C172.694 171.535 172.635 171.476 172.635 171.358C172.635 171.299 172.694 171.181 172.753 171.121C174.591 169.408 179.039 165.151 180.817 163.26C182.418 161.547 184.138 159.655 185.087 158.65C185.146 158.591 185.205 158.532 185.324 158.532C185.383 158.532 185.502 158.532 185.561 158.591C186.332 159.301 186.391 159.477 186.45 159.596C186.51 160.187 184.968 162.315 183.782 163.201C182.952 163.91 182.24 164.679 181.529 165.447C180.817 166.274 179.987 167.103 179.157 167.812C178.801 168.107 178.327 168.52 177.793 168.935C176.489 170.058 175.066 171.299 174.176 171.653C173.88 171.771 173.643 171.83 173.465 171.83ZM173.465 171.24C173.583 171.24 173.761 171.24 173.88 171.121C174.651 170.826 176.133 169.525 177.319 168.52C177.853 168.107 178.268 167.693 178.683 167.397C179.513 166.689 180.284 165.92 180.936 165.092C181.647 164.265 182.418 163.438 183.308 162.729C184.316 161.901 185.146 160.896 185.739 159.714C185.62 159.536 185.442 159.36 185.264 159.242C184.316 160.305 182.655 162.078 181.232 163.674C179.572 165.506 175.481 169.349 173.465 171.24Z" fill="#2E3038"/>
<path d="M184.02 132.704L187.163 136.191L192.144 146.297C192.144 146.297 193.389 146.593 193.923 146.239C194.456 145.884 193.567 133.294 193.27 131.403C192.974 129.512 193.33 128.684 192.559 128.389C191.788 128.093 184.851 129.098 184.851 129.098L184.02 132.704Z" fill="#184AFB"/>
<path d="M193.033 146.593C192.677 146.593 192.38 146.534 192.084 146.475C192.024 146.475 191.906 146.416 191.906 146.297L186.984 136.25L183.9 132.822C183.841 132.763 183.782 132.645 183.841 132.526L184.671 128.862C184.671 128.743 184.79 128.625 184.908 128.625C186.094 128.448 191.906 127.561 192.736 127.916C193.448 128.212 193.448 128.802 193.507 129.689C193.507 130.103 193.566 130.576 193.625 131.167C193.625 131.285 194.989 145.707 194.159 146.297C193.803 146.534 193.448 146.652 193.033 146.593ZM192.321 145.943C192.795 146.062 193.27 146.062 193.685 145.884C194.04 144.82 193.27 133.59 192.973 131.344C192.914 130.812 192.855 130.339 192.855 129.807C192.795 128.921 192.795 128.684 192.44 128.567C192.024 128.389 188.407 128.802 185.086 129.276L184.315 132.645L187.339 135.955L187.399 136.014L192.321 145.943Z" fill="#2E3038"/>
<path d="M192.558 128.271C192.262 128.212 191.906 128.152 191.609 128.212C192.024 131.699 192.974 140.505 193.271 142.337C193.389 143.638 193.448 144.997 193.33 146.297C193.567 146.297 193.745 146.238 193.923 146.12C194.456 145.766 193.567 133.176 193.271 131.285C192.974 129.394 193.389 128.625 192.558 128.271Z" fill="#2E3038"/>
<path d="M193.329 146.593C193.269 146.593 193.151 146.533 193.092 146.533C193.032 146.474 192.973 146.415 193.032 146.297C193.092 144.997 193.092 143.697 192.973 142.396C192.736 140.505 191.728 131.876 191.371 128.271C191.371 128.211 191.371 128.093 191.431 128.034C191.491 127.975 191.55 127.916 191.669 127.916C192.024 127.856 192.38 127.916 192.736 127.975C193.447 128.271 193.447 128.861 193.507 129.748C193.507 130.162 193.566 130.635 193.625 131.225C193.625 131.344 194.989 145.765 194.159 146.356C193.862 146.474 193.625 146.593 193.329 146.593ZM191.965 128.507C192.38 132.289 193.329 140.505 193.566 142.337C193.685 143.519 193.744 144.761 193.685 145.943H193.744C194.1 144.879 193.329 133.649 193.032 131.403C192.973 130.871 192.914 130.398 192.914 129.866C192.854 128.979 192.854 128.743 192.499 128.625C192.321 128.507 192.143 128.507 191.965 128.507Z" fill="#2E3038"/>
</g>
</svg>
