<svg width="72" height="72" viewBox="0 0 72 72" fill="none" xmlns="http://www.w3.org/2000/svg">
<path d="M0 64C0 68.4183 3.58172 72 8 72H52C63.0457 72 72 63.0457 72 52V8C72 3.58172 68.4183 0 64 0H20C8.95431 0 0 8.95431 0 20V64Z" fill="#F5F5F5"/>
<path d="M57 36.4872C49.8 48.4872 36 47.9712 36 47.9712C36 47.9712 22.188 48.4872 15 36.4872C22.2 24.4872 36 25.0032 36 25.0032C36 25.0032 49.812 24.4872 57 36.4872Z" stroke="#184AFB" stroke-width="2" stroke-linejoin="round"/>
<path d="M35.9996 47.97C42.3421 47.97 47.4836 42.8284 47.4836 36.486C47.4836 30.1435 42.3421 25.002 35.9996 25.002C29.6572 25.002 24.5156 30.1435 24.5156 36.486C24.5156 42.8284 29.6572 47.97 35.9996 47.97Z" stroke="#184AFB" stroke-width="2" stroke-linejoin="round"/>
</svg>
